name D:\school\WTK\thesis\model\3dpredictsim\Results\MidTarsalJoint\Fal_s1_bCst_PF_Natali2010_ls150_MT_k50_MTP_T5_ig24_PFx5.mot
datacolumns 128
datarows 4
range 1.12460557 1.15834374
endheader
time	pelvis_tilt	pelvis_list	pelvis_rotation	pelvis_tx	pelvis_ty	pelvis_tz	hip_flexion_l	hip_adduction_l	hip_rotation_l	hip_flexion_r	hip_adduction_r	hip_rotation_r	knee_angle_l	knee_angle_r	ankle_angle_l	ankle_angle_r	subtalar_angle_l	subtalar_angle_r	mtj_angle_l	mtj_angle_r	mtp_angle_l	mtp_angle_r	lumbar_extension	lumbar_bending	lumbar_rotation	arm_flex_l	arm_add_l	arm_rot_l	arm_flex_r	arm_add_r	arm_rot_r	elbow_flex_l	elbow_flex_r	pro_sup_l	pro_sup_r	glut_med1_l/activation	glut_med2_l/activation	glut_med3_l/activation	glut_min1_l/activation	glut_min2_l/activation	glut_min3_l/activation	semimem_l/activation	semiten_l/activation	bifemlh_l/activation	bifemsh_l/activation	sar_l/activation	add_long_l/activation	add_brev_l/activation	add_mag1_l/activation	add_mag2_l/activation	add_mag3_l/activation	tfl_l/activation	pect_l/activation	grac_l/activation	glut_max1_l/activation	glut_max2_l/activation	glut_max3_l/activation	iliacus_l/activation	psoas_l/activation	quad_fem_l/activation	gem_l/activation	peri_l/activation	rect_fem_l/activation	vas_med_l/activation	vas_int_l/activation	vas_lat_l/activation	med_gas_l/activation	lat_gas_l/activation	soleus_l/activation	tib_post_l/activation	flex_dig_l/activation	flex_hal_l/activation	tib_ant_l/activation	per_brev_l/activation	per_long_l/activation	per_tert_l/activation	ext_dig_l/activation	ext_hal_l/activation	ercspn_l/activation	intobl_l/activation	extobl_l/activation	glut_med1_r/activation	glut_med2_r/activation	glut_med3_r/activation	glut_min1_r/activation	glut_min2_r/activation	glut_min3_r/activation	semimem_r/activation	semiten_r/activation	bifemlh_r/activation	bifemsh_r/activation	sar_r/activation	add_long_r/activation	add_brev_r/activation	add_mag1_r/activation	add_mag2_r/activation	add_mag3_r/activation	tfl_r/activation	pect_r/activation	grac_r/activation	glut_max1_r/activation	glut_max2_r/activation	glut_max3_r/activation	iliacus_r/activation	psoas_r/activation	quad_fem_r/activation	gem_r/activation	peri_r/activation	rect_fem_r/activation	vas_med_r/activation	vas_int_r/activation	vas_lat_r/activation	med_gas_r/activation	lat_gas_r/activation	soleus_r/activation	tib_post_r/activation	flex_dig_r/activation	flex_hal_r/activation	tib_ant_r/activation	per_brev_r/activation	per_long_r/activation	per_tert_r/activation	ext_dig_r/activation	ext_hal_r/activation	ercspn_r/activation	intobl_r/activation	extobl_r/activation	
          1.12460557	         -2.92985505	         -2.27895980	          5.02040884	          1.40575697	          0.92048620	         -0.00147346	        -16.25032682	         -1.04002882	          6.08926023	         28.14087869	          3.64683485	         -2.20788523	         -8.00334178	         -8.21511914	          1.70506567	          6.16961693	          8.93443695	         -5.46017214	          3.26707247	         -1.14025235	         -0.39433248	          1.17299276	         -2.24611207	          0.56748487	         -2.32232477	          4.62212390	        -13.45198982	         13.54105159	         -6.19401490	        -13.45853842	          4.51792541	         36.75834270	         17.96241089	         86.51662706	         86.51662706	          0.29221961	          0.10407097	          0.07786521	          0.28585859	          0.19943379	          0.11762992	          0.05000417	          0.05000084	          0.05000047	          0.05524276	          0.11770135	          0.06215011	          0.05018075	          0.05000316	          0.05001009	          0.05000162	          0.32588675	          0.07044597	          0.05002217	          0.05000727	          0.05000212	          0.05000201	          0.42850839	          0.67821744	          0.05000034	          0.05000095	          0.05387960	          0.22656405	          0.05000089	          0.05000091	          0.05000083	          0.29795239	          0.40440407	          0.36500330	          0.26053963	          0.24684385	          0.32038068	          0.05000010	          0.06268995	          0.18376366	          0.05000097	          0.05000020	          0.05000059	          0.05000004	          0.05000014	          0.05000036	          0.05937162	          0.05937161	          0.05000042	          0.05937178	          0.05937173	          0.05427556	          0.21837906	          0.08506752	          0.14676645	          0.05151162	          0.05000050	          0.16259268	          0.28750806	          0.14519970	          0.19329045	          0.11981749	          0.05000029	          0.05147297	          0.14415512	          0.05000181	          0.05423687	          0.16239480	          0.05000121	          0.05000030	          0.19656842	          0.27706593	          0.12283469	          0.05000040	          0.11423064	          0.11280838	          0.10035020	          0.06302133	          0.06006057	          0.05744698	          0.05000009	          0.05000164	          0.05000076	          0.46898481	          0.24766732	          0.16692599	          0.12827634	          0.46520279	          0.18514807	          0.05937206	          0.11159590	          0.10142252	
          1.13585163	         -2.92969145	         -2.35854218	          5.28825916	          1.42254075	          0.91970152	         -0.00126675	        -16.15512108	         -1.31036845	          5.91414097	         27.46459508	          4.00460834	         -1.94595504	         -9.85992524	         -8.47896021	          1.22833245	          5.49890631	          9.73738957	         -5.74812616	          2.62332540	         -1.15898824	          0.66047830	          1.09693032	         -2.05216552	          0.75768658	         -2.38996585	          4.33116082	        -13.45649088	         13.80325168	         -6.97804439	        -13.45007651	          4.41873704	         37.88108232	         17.53506786	         86.51662706	         86.51662706	          0.24609346	          0.08764367	          0.06557457	          0.24073675	          0.16795378	          0.09906247	          0.05002853	          0.05000187	          0.05000261	          0.05000045	          0.09912316	          0.12996758	          0.05695879	          0.05937614	          0.05937159	          0.05937896	          0.27444686	          0.05935654	          0.05010920	          0.05009365	          0.05007792	          0.05080473	          0.36086947	          0.63553521	          0.05253017	          0.05939393	          0.05938251	          0.19762687	          0.12499640	          0.11978089	          0.12022596	          0.25092121	          0.34056984	          0.33021589	          0.24579372	          0.20792550	          0.28211664	          0.05000014	          0.05279469	          0.18900826	          0.05000041	          0.05000014	          0.05000062	          0.05795911	          0.06544683	          0.05937178	          0.05000003	          0.05000012	          0.09988554	          0.05000014	          0.05000016	          0.05000019	          0.18390870	          0.07163996	          0.12359973	          0.05000057	          0.05937341	          0.13692946	          0.33455551	          0.33827207	          0.21747133	          0.11507801	          0.05000084	          0.07071051	          0.15303911	          0.05057525	          0.07596267	          0.13678730	          0.05000077	          0.06309427	          0.51853381	          0.23333173	          0.10344562	          0.05945059	          0.11708950	          0.11918222	          0.09448777	          0.06646417	          0.07049906	          0.05155378	          0.05937309	          0.05029991	          0.05937911	          0.46735369	          0.28893758	          0.20631662	          0.10802834	          0.39743231	          0.15592303	          0.05000031	          0.09398072	          0.08541318	
          1.14709768	         -2.92604735	         -2.44241752	          5.52487035	          1.43961368	          0.91898001	         -0.00108544	        -16.00307529	         -1.58409643	          5.73555803	         26.69110735	          4.25787736	         -1.66024242	        -11.79990675	         -8.93379480	          0.61319905	          4.89343357	         10.51595941	         -6.04295071	          1.78112980	         -1.24250556	          2.08454787	          1.20876698	         -1.83810075	          0.96149660	         -2.44444063	          3.96033878	        -13.45384031	         13.99223048	         -7.78310731	        -13.45097817	          4.36433280	         38.98030819	         17.15405234	         86.51662706	         86.51662706	          0.31769743	          0.07380941	          0.05522402	          0.30226408	          0.14144316	          0.08342591	          0.05000891	          0.05000077	          0.05000063	          0.05000106	          0.08351858	          0.10945266	          0.05000108	          0.05000424	          0.05000410	          0.05000675	          0.31514259	          0.05004945	          0.05000220	          0.05006757	          0.05001365	          0.05000259	          0.30390884	          0.60526349	          0.05000063	          0.05001946	          0.05000957	          0.16643213	          0.10526640	          0.10087415	          0.10124890	          0.21131378	          0.28681160	          0.27809196	          0.20699720	          0.17510618	          0.23758634	          0.05000009	          0.08754236	          0.20261557	          0.05000051	          0.05000015	          0.05000052	          0.05000029	          0.05511619	          0.05000029	          0.23204917	          0.22380481	          0.27613543	          0.33980586	          0.21694536	          0.20721373	          0.15718421	          0.06246555	          0.10409562	          0.05830004	          0.05000243	          0.11531552	          0.28174674	          0.28487673	          0.18314441	          0.12163654	          0.05000163	          0.05955148	          0.12888310	          0.05000151	          0.06397739	          0.11575451	          0.05000347	          0.05313513	          0.43668434	          0.19650104	          0.19539878	          0.05006651	          0.09860776	          0.10037019	          0.07957362	          0.05597304	          0.05937112	          0.05001302	          0.05000135	          0.05000230	          0.05000721	          0.51621735	          0.29624600	          0.17375014	          0.31637753	          0.48429979	          0.13131134	          0.05755027	          0.11805201	          0.07193089	
          1.15834374	         -2.92101125	         -2.52239461	          5.72512863	          1.45678744	          0.91837016	         -0.00088354	        -15.75003355	         -1.85329358	          5.57334381	         25.87478406	          4.47824649	         -1.37465286	        -13.87433775	         -9.34585807	         -0.16888370	          4.35443734	         11.28115781	         -6.31691031	          0.77392132	         -1.25297329	          3.87014670	          1.26418102	         -1.62484622	          1.16952548	         -2.48873990	          3.54207898	        -13.45303524	         14.13086046	         -8.56684289	        -13.45350661	          4.35179830	         40.03309009	         16.80109094	         86.51662706	         86.51662706	          0.27887188	          0.06215884	          0.05000394	          0.25455337	          0.11911690	          0.07025751	          0.05001246	          0.05000068	          0.05000063	          0.05000048	          0.07033765	          0.11261584	          0.05001513	          0.05000606	          0.05002296	          0.05000211	          0.30012696	          0.05042630	          0.05001570	          0.05007500	          0.05003078	          0.05001578	          0.25593756	          0.55719347	          0.05001030	          0.05001669	          0.05000078	          0.14016125	          0.10159651	          0.12170887	          0.11803609	          0.17795831	          0.24153896	          0.23419568	          0.17432326	          0.14746646	          0.20008415	          0.05000044	          0.07372474	          0.20365294	          0.05000076	          0.08004155	          0.05000088	          0.06542641	          0.05000004	          0.05000010	          0.33037131	          0.32054122	          0.34049807	          0.28616889	          0.19003929	          0.19790495	          0.13274885	          0.06932678	          0.08972466	          0.05000463	          0.05000402	          0.09711327	          0.23727365	          0.23990990	          0.15423631	          0.15103503	          0.05000117	          0.05015230	          0.10853976	          0.20221745	          0.15707188	          0.13453739	          0.05000021	          0.05000022	          0.36775465	          0.16548391	          0.16455614	          0.05000022	          0.08519616	          0.08766298	          0.06752580	          0.05000012	          0.05000030	          0.05000005	          0.05000028	          0.05000065	          0.05000070	          0.59480211	          0.33821388	          0.18765625	          0.42487660	          0.51785307	          0.24597728	          0.08044999	          0.09941776	          0.06057677	
